<svg xmlns="http://www.w3.org/2000/svg" xmlns:xlink="http://www.w3.org/1999/xlink" width="300" zoomAndPan="magnify" viewBox="0 0 224.87999 74.999997" height="100" preserveAspectRatio="xMidYMid meet" version="1.0"><defs><g/><clipPath id="75f1aeae33"><path d="M 0 0.0195312 L 224.761719 0.0195312 L 224.761719 74.980469 L 0 74.980469 Z M 0 0.0195312 " clip-rule="nonzero"/></clipPath><clipPath id="3ed2b43f2c"><path d="M 102.871094 19.273438 L 125.359375 19.273438 L 125.359375 41.761719 L 102.871094 41.761719 Z M 102.871094 19.273438 " clip-rule="nonzero"/></clipPath><clipPath id="6eb7abf95b"><path d="M 114.113281 19.273438 C 107.90625 19.273438 102.871094 24.308594 102.871094 30.515625 C 102.871094 36.726562 107.90625 41.761719 114.113281 41.761719 C 120.324219 41.761719 125.359375 36.726562 125.359375 30.515625 C 125.359375 24.308594 120.324219 19.273438 114.113281 19.273438 Z M 114.113281 19.273438 " clip-rule="nonzero"/></clipPath></defs><g clip-path="url(#75f1aeae33)"><path fill="#ffffff" d="M 0 0.0195312 L 224.878906 0.0195312 L 224.878906 74.980469 L 0 74.980469 Z M 0 0.0195312 " fill-opacity="1" fill-rule="nonzero"/><path fill="#000000" d="M 0 0.0195312 L 224.878906 0.0195312 L 224.878906 74.980469 L 0 74.980469 Z M 0 0.0195312 " fill-opacity="1" fill-rule="nonzero"/></g><g clip-path="url(#3ed2b43f2c)"><g clip-path="url(#6eb7abf95b)"><path fill="#ffffff" d="M 102.871094 19.273438 L 125.359375 19.273438 L 125.359375 41.761719 L 102.871094 41.761719 Z M 102.871094 19.273438 " fill-opacity="1" fill-rule="nonzero"/></g></g><g fill="#000000" fill-opacity="0.4"><g transform="translate(101.058636, 42.098876)"><g><path d="M 7.359375 0 L 7.359375 -9.296875 L 0.171875 -20.640625 L 5.1875 -20.640625 L 9.40625 -13.53125 L 13.625 -20.640625 L 18.671875 -20.640625 L 11.453125 -9.296875 L 11.453125 0 Z M 7.359375 0 "/></g></g></g><g fill="#000000" fill-opacity="1"><g transform="translate(100.931048, 41.971293)"><g><path d="M 7.359375 0 L 7.359375 -9.296875 L 0.171875 -20.640625 L 5.1875 -20.640625 L 9.40625 -13.53125 L 13.625 -20.640625 L 18.671875 -20.640625 L 11.453125 -9.296875 L 11.453125 0 Z M 7.359375 0 "/></g></g></g><g fill="#ffffff" fill-opacity="1"><g transform="translate(94.767067, 50.976212)"><g><path d="M 2.578125 0 L 1.65625 0 L 1.65625 -1.84375 L 0.015625 -4.703125 L 1.015625 -4.703125 L 2.09375 -2.859375 L 2.171875 -2.859375 L 3.234375 -4.703125 L 4.203125 -4.703125 L 2.578125 -1.84375 Z M 2.578125 0 "/></g></g></g><g fill="#ffffff" fill-opacity="1"><g transform="translate(99.721826, 50.976212)"><g><path d="M 2.5 0.0625 C 1.84375 0.0625 1.359375 -0.0859375 1.046875 -0.390625 C 0.734375 -0.703125 0.578125 -1.160156 0.578125 -1.765625 L 0.578125 -4.703125 L 1.5 -4.703125 L 1.5 -1.765625 C 1.5 -1.421875 1.578125 -1.160156 1.734375 -0.984375 C 1.898438 -0.816406 2.15625 -0.734375 2.5 -0.734375 C 3.164062 -0.734375 3.5 -1.078125 3.5 -1.765625 L 3.5 -4.703125 L 4.40625 -4.703125 L 4.40625 -1.765625 C 4.40625 -1.160156 4.25 -0.703125 3.9375 -0.390625 C 3.625 -0.0859375 3.144531 0.0625 2.5 0.0625 Z M 2.5 0.0625 "/></g></g></g><g fill="#ffffff" fill-opacity="1"><g transform="translate(105.439955, 50.976212)"><g><path d="M 0.609375 0 L 0.609375 -4.703125 L 2.625 -4.703125 C 2.914062 -4.703125 3.160156 -4.65625 3.359375 -4.5625 C 3.554688 -4.476562 3.707031 -4.347656 3.8125 -4.171875 C 3.914062 -4.003906 3.96875 -3.804688 3.96875 -3.578125 C 3.96875 -3.367188 3.914062 -3.1875 3.8125 -3.03125 C 3.707031 -2.875 3.5625 -2.75 3.375 -2.65625 L 3.375 -2.578125 C 3.675781 -2.503906 3.90625 -2.363281 4.0625 -2.15625 C 4.226562 -1.957031 4.3125 -1.707031 4.3125 -1.40625 C 4.3125 -0.957031 4.175781 -0.609375 3.90625 -0.359375 C 3.632812 -0.117188 3.226562 0 2.6875 0 Z M 2.421875 -2.828125 C 2.859375 -2.828125 3.078125 -3.023438 3.078125 -3.421875 C 3.078125 -3.617188 3.019531 -3.765625 2.90625 -3.859375 C 2.800781 -3.960938 2.640625 -4.015625 2.421875 -4.015625 L 1.546875 -4.015625 L 1.546875 -2.828125 Z M 2.59375 -0.734375 C 3.113281 -0.734375 3.375 -0.96875 3.375 -1.4375 C 3.375 -1.90625 3.113281 -2.140625 2.59375 -2.140625 L 1.546875 -2.140625 L 1.546875 -0.734375 Z M 2.59375 -0.734375 "/></g></g></g><g fill="#ffffff" fill-opacity="1"><g transform="translate(110.771567, 50.976212)"><g><path d="M 2.578125 0.0625 C 2.140625 0.0625 1.753906 -0.0234375 1.421875 -0.203125 C 1.097656 -0.378906 0.84375 -0.648438 0.65625 -1.015625 C 0.46875 -1.378906 0.375 -1.828125 0.375 -2.359375 C 0.375 -2.890625 0.46875 -3.332031 0.65625 -3.6875 C 0.84375 -4.050781 1.097656 -4.320312 1.421875 -4.5 C 1.753906 -4.6875 2.140625 -4.78125 2.578125 -4.78125 C 3.023438 -4.78125 3.40625 -4.691406 3.71875 -4.515625 C 4.039062 -4.335938 4.269531 -4.066406 4.40625 -3.703125 L 3.71875 -3.28125 L 3.640625 -3.28125 C 3.546875 -3.53125 3.410156 -3.707031 3.234375 -3.8125 C 3.054688 -3.914062 2.835938 -3.96875 2.578125 -3.96875 C 2.179688 -3.96875 1.875 -3.835938 1.65625 -3.578125 C 1.4375 -3.328125 1.328125 -2.921875 1.328125 -2.359375 C 1.328125 -1.796875 1.4375 -1.382812 1.65625 -1.125 C 1.875 -0.863281 2.179688 -0.734375 2.578125 -0.734375 C 3.179688 -0.734375 3.554688 -1.03125 3.703125 -1.625 L 3.78125 -1.625 L 4.46875 -1.265625 C 4.332031 -0.828125 4.109375 -0.492188 3.796875 -0.265625 C 3.484375 -0.046875 3.078125 0.0625 2.578125 0.0625 Z M 2.578125 0.0625 "/></g></g></g><g fill="#ffffff" fill-opacity="1"><g transform="translate(116.116064, 50.976212)"><g><path d="M 4.515625 0 L 3.53125 0 L 3.1875 -1.078125 L 1.375 -1.078125 L 1.03125 0 L 0.078125 0 L 1.703125 -4.703125 L 2.890625 -4.703125 Z M 2.234375 -3.71875 L 1.625 -1.875 L 2.921875 -1.875 L 2.3125 -3.71875 Z M 2.234375 -3.71875 "/></g></g></g><g fill="#ffffff" fill-opacity="1"><g transform="translate(121.431571, 50.976212)"><g><path d="M 2.09375 0.0625 C 1.757812 0.0625 1.460938 0.0234375 1.203125 -0.046875 C 0.953125 -0.128906 0.742188 -0.234375 0.578125 -0.359375 C 0.410156 -0.492188 0.28125 -0.640625 0.1875 -0.796875 L 0.703125 -1.421875 L 0.78125 -1.421875 C 0.925781 -1.210938 1.109375 -1.046875 1.328125 -0.921875 C 1.546875 -0.796875 1.800781 -0.734375 2.09375 -0.734375 C 2.332031 -0.734375 2.515625 -0.785156 2.640625 -0.890625 C 2.773438 -0.992188 2.84375 -1.140625 2.84375 -1.328125 C 2.84375 -1.441406 2.820312 -1.535156 2.78125 -1.609375 C 2.738281 -1.679688 2.671875 -1.742188 2.578125 -1.796875 C 2.484375 -1.859375 2.351562 -1.90625 2.1875 -1.9375 L 1.59375 -2.078125 C 1.164062 -2.171875 0.847656 -2.328125 0.640625 -2.546875 C 0.429688 -2.773438 0.328125 -3.070312 0.328125 -3.4375 C 0.328125 -3.695312 0.394531 -3.925781 0.53125 -4.125 C 0.664062 -4.332031 0.859375 -4.492188 1.109375 -4.609375 C 1.367188 -4.722656 1.675781 -4.78125 2.03125 -4.78125 C 2.382812 -4.78125 2.691406 -4.726562 2.953125 -4.625 C 3.210938 -4.53125 3.429688 -4.382812 3.609375 -4.1875 L 3.15625 -3.5625 L 3.078125 -3.5625 C 2.941406 -3.695312 2.785156 -3.800781 2.609375 -3.875 C 2.441406 -3.945312 2.25 -3.984375 2.03125 -3.984375 C 1.769531 -3.984375 1.570312 -3.9375 1.4375 -3.84375 C 1.3125 -3.75 1.25 -3.625 1.25 -3.46875 C 1.25 -3.320312 1.289062 -3.203125 1.375 -3.109375 C 1.46875 -3.023438 1.632812 -2.957031 1.875 -2.90625 L 2.484375 -2.78125 C 2.941406 -2.6875 3.273438 -2.519531 3.484375 -2.28125 C 3.691406 -2.050781 3.796875 -1.753906 3.796875 -1.390625 C 3.796875 -1.097656 3.726562 -0.84375 3.59375 -0.625 C 3.46875 -0.40625 3.273438 -0.234375 3.015625 -0.109375 C 2.765625 0.00390625 2.457031 0.0625 2.09375 0.0625 Z M 2.09375 0.0625 "/></g></g></g><g fill="#ffffff" fill-opacity="1"><g transform="translate(126.202734, 50.976212)"><g><path d="M 3.765625 -4.703125 L 3.765625 -3.921875 L 2.421875 -3.921875 L 2.421875 0 L 1.484375 0 L 1.484375 -3.921875 L 0.125 -3.921875 L 0.125 -4.703125 Z M 3.765625 -4.703125 "/></g></g></g></svg>